<svg id="visual" viewBox="0 0 900 600" width="900" height="600" xmlns="http://www.w3.org/2000/svg" xmlns:xlink="http://www.w3.org/1999/xlink" version="1.1"><rect x="0" y="0" width="900" height="600" fill="#0e314c"></rect><defs><linearGradient id="grad1_0" x1="33.3%" y1="100%" x2="100%" y2="0%"><stop offset="20%" stop-color="#da8b15" stop-opacity="1"></stop><stop offset="80%" stop-color="#da8b15" stop-opacity="1"></stop></linearGradient></defs><defs><linearGradient id="grad1_1" x1="33.3%" y1="100%" x2="100%" y2="0%"><stop offset="20%" stop-color="#da8b15" stop-opacity="1"></stop><stop offset="80%" stop-color="#9f4173" stop-opacity="1"></stop></linearGradient></defs><defs><linearGradient id="grad1_2" x1="33.3%" y1="100%" x2="100%" y2="0%"><stop offset="20%" stop-color="#0e314c" stop-opacity="1"></stop><stop offset="80%" stop-color="#9f4173" stop-opacity="1"></stop></linearGradient></defs><defs><linearGradient id="grad2_0" x1="0%" y1="100%" x2="66.7%" y2="0%"><stop offset="20%" stop-color="#da8b15" stop-opacity="1"></stop><stop offset="80%" stop-color="#da8b15" stop-opacity="1"></stop></linearGradient></defs><defs><linearGradient id="grad2_1" x1="0%" y1="100%" x2="66.7%" y2="0%"><stop offset="20%" stop-color="#9f4173" stop-opacity="1"></stop><stop offset="80%" stop-color="#da8b15" stop-opacity="1"></stop></linearGradient></defs><defs><linearGradient id="grad2_2" x1="0%" y1="100%" x2="66.7%" y2="0%"><stop offset="20%" stop-color="#9f4173" stop-opacity="1"></stop><stop offset="80%" stop-color="#0e314c" stop-opacity="1"></stop></linearGradient></defs><g transform="translate(900, 600)"><path d="M-432.7 0C-392.9 -30.4 -353.1 -60.9 -335.2 -89.8C-317.3 -118.8 -321.3 -146.3 -324.8 -187.5C-328.2 -228.7 -331 -283.7 -305.9 -305.9C-280.8 -328.2 -227.8 -317.6 -192.5 -333.4C-157.2 -349.3 -139.6 -391.5 -110.5 -412.5C-81.4 -433.4 -40.7 -433 0 -432.7L0 0Z" fill="#513f71"></path><path d="M-288.4 0C-261.9 -20.3 -235.4 -40.6 -223.5 -59.9C-211.5 -79.2 -214.2 -97.5 -216.5 -125C-218.8 -152.5 -220.7 -189.2 -204 -204C-187.2 -218.8 -151.9 -211.7 -128.3 -222.3C-104.8 -232.8 -93.1 -261 -73.7 -275C-54.3 -288.9 -27.1 -288.7 0 -288.4L0 0Z" fill="#d55551"></path><path d="M-144.2 0C-131 -10.1 -117.7 -20.3 -111.7 -29.9C-105.8 -39.6 -107.1 -48.8 -108.3 -62.5C-109.4 -76.2 -110.3 -94.6 -102 -102C-93.6 -109.4 -75.9 -105.9 -64.2 -111.1C-52.4 -116.4 -46.5 -130.5 -36.8 -137.5C-27.1 -144.5 -13.6 -144.3 0 -144.2L0 0Z" fill="#da8b15"></path></g><g transform="translate(0, 0)"><path d="M432.7 0C395.3 28.9 358 57.9 344.8 92.4C331.7 126.9 342.8 167 320.4 185C298 203 242.1 198.7 215 215C187.8 231.2 189.5 267.8 178.5 309.2C167.5 350.5 143.8 396.6 112 417.9C80.1 439.3 40.1 436 0 432.7L0 0Z" fill="#513f71"></path><path d="M288.4 0C263.5 19.3 238.6 38.6 229.9 61.6C221.1 84.6 228.6 111.4 213.6 123.3C198.7 135.3 161.4 132.5 143.3 143.3C125.2 154.1 126.3 178.6 119 206.1C111.7 233.7 95.9 264.4 74.7 278.6C53.4 292.9 26.7 290.7 0 288.4L0 0Z" fill="#d55551"></path><path d="M144.2 0C131.8 9.6 119.3 19.3 114.9 30.8C110.6 42.3 114.3 55.7 106.8 61.7C99.3 67.7 80.7 66.2 71.7 71.7C62.6 77.1 63.2 89.3 59.5 103.1C55.8 116.8 47.9 132.2 37.3 139.3C26.7 146.4 13.4 145.3 0 144.2L0 0Z" fill="#da8b15"></path></g></svg>