<svg id="visual" viewBox="0 0 900 600" width="900" height="600" xmlns="http://www.w3.org/2000/svg" xmlns:xlink="http://www.w3.org/1999/xlink" version="1.1"><rect x="0" y="0" width="900" height="600" fill="#F7770F"></rect><defs><linearGradient id="grad1_0" x1="33.3%" y1="100%" x2="100%" y2="0%"><stop offset="20%" stop-color="#131313" stop-opacity="1"></stop><stop offset="80%" stop-color="#131313" stop-opacity="1"></stop></linearGradient></defs><defs><linearGradient id="grad1_1" x1="33.3%" y1="100%" x2="100%" y2="0%"><stop offset="20%" stop-color="#131313" stop-opacity="1"></stop><stop offset="80%" stop-color="#7e431a" stop-opacity="1"></stop></linearGradient></defs><defs><linearGradient id="grad1_2" x1="33.3%" y1="100%" x2="100%" y2="0%"><stop offset="20%" stop-color="#f7770f" stop-opacity="1"></stop><stop offset="80%" stop-color="#7e431a" stop-opacity="1"></stop></linearGradient></defs><defs><linearGradient id="grad2_0" x1="0%" y1="100%" x2="66.7%" y2="0%"><stop offset="20%" stop-color="#131313" stop-opacity="1"></stop><stop offset="80%" stop-color="#131313" stop-opacity="1"></stop></linearGradient></defs><defs><linearGradient id="grad2_1" x1="0%" y1="100%" x2="66.7%" y2="0%"><stop offset="20%" stop-color="#7e431a" stop-opacity="1"></stop><stop offset="80%" stop-color="#131313" stop-opacity="1"></stop></linearGradient></defs><defs><linearGradient id="grad2_2" x1="0%" y1="100%" x2="66.7%" y2="0%"><stop offset="20%" stop-color="#7e431a" stop-opacity="1"></stop><stop offset="80%" stop-color="#f7770f" stop-opacity="1"></stop></linearGradient></defs><g transform="translate(900, 600)"><path d="M-540.8 0C-530.2 -46.2 -519.5 -92.4 -502.3 -134.6C-485 -176.8 -461.2 -215.1 -434.7 -251C-408.3 -286.9 -379.2 -320.6 -346.5 -346.5C-313.8 -372.4 -277.4 -390.6 -244 -422.6C-210.6 -454.6 -180.2 -500.4 -140 -522.4C-99.8 -544.4 -49.9 -542.6 0 -540.8L0 0Z" fill="#b95c18"></path><path d="M-360.6 0C-353.5 -30.8 -346.4 -61.6 -334.9 -89.7C-323.4 -117.9 -307.5 -143.4 -289.8 -167.3C-272.2 -191.3 -252.8 -213.7 -231 -231C-209.2 -248.3 -184.9 -260.4 -162.7 -281.7C-140.4 -303.1 -120.1 -333.6 -93.3 -348.3C-66.5 -362.9 -33.3 -361.7 0 -360.6L0 0Z" fill="#472b18"></path><path d="M-180.3 0C-176.7 -15.4 -173.2 -30.8 -167.4 -44.9C-161.7 -58.9 -153.7 -71.7 -144.9 -83.7C-136.1 -95.6 -126.4 -106.9 -115.5 -115.5C-104.6 -124.1 -92.5 -130.2 -81.3 -140.9C-70.2 -151.5 -60.1 -166.8 -46.7 -174.1C-33.3 -181.5 -16.6 -180.9 0 -180.3L0 0Z" fill="#131313"></path></g><g transform="translate(0, 0)"><path d="M540.8 0C531.5 46.4 522.2 92.8 504.2 135.1C486.2 177.4 459.4 215.7 428.7 247.5C397.9 279.3 363.2 304.8 333 333C302.9 361.3 277.2 392.4 247 427.8C216.8 463.2 181.9 502.9 140 522.4C98 542 49 541.4 0 540.8L0 0Z" fill="#b95c18"></path><path d="M360.6 0C354.4 30.9 348.2 61.9 336.1 90.1C324.1 118.3 306.3 143.8 285.8 165C265.3 186.2 242.1 203.2 222 222C201.9 240.9 184.8 261.6 164.7 285.2C144.5 308.8 121.3 335.2 93.3 348.3C65.4 361.3 32.7 360.9 0 360.6L0 0Z" fill="#472b18"></path><path d="M180.3 0C177.2 15.5 174.1 30.9 168.1 45C162.1 59.1 153.1 71.9 142.9 82.5C132.6 93.1 121.1 101.6 111 111C101 120.4 92.4 130.8 82.3 142.6C72.3 154.4 60.6 167.6 46.7 174.1C32.7 180.7 16.3 180.5 0 180.3L0 0Z" fill="#131313"></path></g></svg>