<svg id="visual" viewBox="0 0 900 600" width="900" height="600" xmlns="http://www.w3.org/2000/svg" xmlns:xlink="http://www.w3.org/1999/xlink" version="1.1"><rect x="0" y="0" width="900" height="600" fill="#4d0d78"></rect><path d="M207 0L162 0L162 86L228 86L228 171L154 171L154 257L169 257L169 343L144 343L144 429L155 429L155 514L193 514L193 600L0 600L0 514L0 514L0 429L0 429L0 343L0 343L0 257L0 257L0 171L0 171L0 86L0 86L0 0L0 0Z" fill="#ff0066"></path><path d="M210 0L138 0L138 86L162 86L162 171L167 171L167 257L220 257L220 343L168 343L168 429L138 429L138 514L120 514L120 600L0 600L0 514L0 514L0 429L0 429L0 343L0 343L0 257L0 257L0 171L0 171L0 86L0 86L0 0L0 0Z" fill="#ff557e"></path><path d="M186 0L164 0L164 86L116 86L116 171L110 171L110 257L187 257L187 343L116 343L116 429L125 429L125 514L149 514L149 600L0 600L0 514L0 514L0 429L0 429L0 343L0 343L0 257L0 257L0 171L0 171L0 86L0 86L0 0L0 0Z" fill="#ff7e96"></path><path d="M97 0L75 0L75 86L130 86L130 171L92 171L92 257L101 257L101 343L135 343L135 429L123 429L123 514L156 514L156 600L0 600L0 514L0 514L0 429L0 429L0 343L0 343L0 257L0 257L0 171L0 171L0 86L0 86L0 0L0 0Z" fill="#ffa0af"></path><path d="M73 0L59 0L59 86L100 86L100 171L88 171L88 257L93 257L93 343L69 343L69 429L108 429L108 514L76 514L76 600L0 600L0 514L0 514L0 429L0 429L0 343L0 343L0 257L0 257L0 171L0 171L0 86L0 86L0 0L0 0Z" fill="#ffc0c9"></path><path d="M93 0L51 0L51 86L32 86L32 171L78 171L78 257L54 257L54 343L43 343L43 429L52 429L52 514L68 514L68 600L0 600L0 514L0 514L0 429L0 429L0 343L0 343L0 257L0 257L0 171L0 171L0 86L0 86L0 0L0 0Z" fill="#ffe0e4"></path><path d="M8 0L36 0L36 86L60 86L60 171L40 171L40 257L18 257L18 343L34 343L34 429L23 429L23 514L34 514L34 600L0 600L0 514L0 514L0 429L0 429L0 343L0 343L0 257L0 257L0 171L0 171L0 86L0 86L0 0L0 0Z" fill="#ffffff"></path></svg>